<?xml version="1.0" encoding="utf-8"?>
<!-- Generator: Adobe Illustrator 24.0.0, SVG Export Plug-In . SVG Version: 6.00 Build 0)  -->
<svg version="1.1" id="Ebene_1" xmlns="http://www.w3.org/2000/svg" xmlns:xlink="http://www.w3.org/1999/xlink" x="0px" y="0px"
	 viewBox="0 0 321 293" style="enable-background:new 0 0 321 293;" xml:space="preserve">
<style type="text/css">
	.st0{opacity:0.5;}
	.st1{enable-background:new    ;}
	.st2{fill:#BFBFBF;}
	.st3{clip-path:url(#SVGID_2_);}
	.st4{clip-path:url(#SVGID_4_);}
	.st5{opacity:0.7;}
	.st6{clip-path:url(#SVGID_6_);}
	.st7{clip-path:url(#SVGID_8_);}
	.st8{clip-path:url(#SVGID_10_);}
	.st9{clip-path:url(#SVGID_12_);}
	.st10{fill:url(#SVGID_13_);}
	.st11{fill:url(#SVGID_14_);}
	.st12{fill:url(#SVGID_15_);}
	.st13{fill:url(#SVGID_16_);}
	.st14{fill:url(#SVGID_17_);}
	.st15{fill:url(#SVGID_18_);}
	.st16{fill:url(#SVGID_19_);}
	.st17{fill:url(#SVGID_20_);}
	.st18{fill:url(#SVGID_21_);}
	.st19{fill:url(#SVGID_22_);}
	.st20{fill:url(#SVGID_23_);}
	.st21{font-family:'Phosphate-Inline';}
	.st22{font-size:12px;}
</style>
<g class="st0">
	<g>
		<g class="st1">
			<g>
				<polygon class="st2" points="175.7,265 176.7,151.1 270.2,137.6 269.2,251.5 				"/>
				<g class="st1">
					<g>
						<defs>
							<polygon id="SVGID_1_" points="175.7,265 176.7,151.1 270.2,137.6 269.2,251.5 							"/>
						</defs>
						<clipPath id="SVGID_2_">
							<use xlink:href="#SVGID_1_"  style="overflow:visible;"/>
						</clipPath>
						<g class="st3">
							<g>
								<g>
									<g>
										<defs>
											<polyline id="SVGID_3_" points="269.2,251.5 175.7,265 176.7,151.1 270.2,137.6 269.2,251.5 											"/>
										</defs>
										<clipPath id="SVGID_4_">
											<use xlink:href="#SVGID_3_"  style="overflow:visible;"/>
										</clipPath>
										<g class="st4">
											
												<image style="overflow:visible;enable-background:new    ;" width="400" height="533" xlink:href="B8DA9DA4737EB330.png"  transform="matrix(0.237 0 0 0.237 175.6593 138.2095)">
											</image>
										</g>
									</g>
								</g>
							</g>
						</g>
					</g>
				</g>
			</g>
			<g>
				<polygon class="st2" points="175.7,265 145.9,256.5 146.9,142.6 176.7,151.1 				"/>
			</g>
			<g>
				<polygon class="st2" points="176.7,151.1 146.9,142.6 240.5,129.1 270.2,137.6 				"/>
			</g>
		</g>
	</g>
</g>
<g class="st5">
	<g>
		<g class="st1">
			<g>
				<polygon class="st2" points="117.5,241.9 118.5,128 212,114.5 211,228.4 				"/>
				<g class="st1">
					<g>
						<defs>
							<polygon id="SVGID_5_" points="117.5,241.9 118.5,128 212,114.5 211,228.4 							"/>
						</defs>
						<clipPath id="SVGID_6_">
							<use xlink:href="#SVGID_5_"  style="overflow:visible;"/>
						</clipPath>
						<g class="st6">
							<g>
								<g>
									<g>
										<defs>
											<polyline id="SVGID_7_" points="211,228.4 117.5,241.9 118.5,128 212,114.5 211,228.4 											"/>
										</defs>
										<clipPath id="SVGID_8_">
											<use xlink:href="#SVGID_7_"  style="overflow:visible;"/>
										</clipPath>
										<g class="st7">
											
												<image style="overflow:visible;enable-background:new    ;" width="400" height="533" xlink:href="B8DA9DA4737EB331.png"  transform="matrix(0.237 0 0 0.237 117.4734 115.0981)">
											</image>
										</g>
									</g>
								</g>
							</g>
						</g>
					</g>
				</g>
			</g>
			<g>
				<polygon class="st2" points="117.5,241.9 87.8,233.3 88.8,119.5 118.5,128 				"/>
			</g>
			<g>
				<polygon class="st2" points="118.5,128 88.8,119.5 182.3,106 212,114.5 				"/>
			</g>
		</g>
	</g>
</g>
<g>
	<g>
		<g class="st1">
			<g>
				<polygon class="st2" points="52.7,218.3 53.7,104.4 147.2,91 146.2,204.8 				"/>
				<g class="st1">
					<g>
						<defs>
							<polygon id="SVGID_9_" points="52.7,218.3 53.7,104.4 147.2,91 146.2,204.8 							"/>
						</defs>
						<clipPath id="SVGID_10_">
							<use xlink:href="#SVGID_9_"  style="overflow:visible;"/>
						</clipPath>
						<g class="st8">
							<g>
								<g>
									<g>
										<defs>
											<polyline id="SVGID_11_" points="146.2,204.8 52.7,218.3 53.7,104.4 147.2,91 146.2,204.8 											"/>
										</defs>
										<clipPath id="SVGID_12_">
											<use xlink:href="#SVGID_11_"  style="overflow:visible;"/>
										</clipPath>
										<g class="st9">
											
												<image style="overflow:visible;enable-background:new    ;" width="400" height="538" xlink:href="B8DA9DA4737EB337.png"  transform="matrix(0.2369 0 0 0.2369 52.6922 90.9603)">
											</image>
										</g>
									</g>
								</g>
							</g>
						</g>
					</g>
				</g>
			</g>
			<g>
				<polygon class="st2" points="52.7,218.3 22.9,209.8 23.9,95.9 53.7,104.4 				"/>
			</g>
			<g>
				<polygon class="st2" points="53.7,104.4 23.9,95.9 117.5,82.4 147.2,91 				"/>
			</g>
		</g>
	</g>
</g>
<linearGradient id="SVGID_13_" gradientUnits="userSpaceOnUse" x1="-8.6253" y1="-46.8945" x2="44.3376" y2="-46.8945" gradientTransform="matrix(-0.1694 0.9855 0.9855 0.1694 223.6244 87.985)">
	<stop  offset="0" style="stop-color:#FFFFFF"/>
	<stop  offset="1" style="stop-color:#000000"/>
</linearGradient>
<polygon class="st10" points="141.1,65 214.7,120.9 207.7,130.2 134,74.3 "/>
<linearGradient id="SVGID_14_" gradientUnits="userSpaceOnUse" x1="-14.008" y1="-114.1994" x2="83.0261" y2="-114.1994" gradientTransform="matrix(-0.1694 0.9855 0.9855 0.1694 223.6244 87.985)">
	<stop  offset="0" style="stop-color:#2581C4"/>
	<stop  offset="1" style="stop-color:#2581C4;stop-opacity:0"/>
</linearGradient>
<polygon class="st11" points="69.4,140.2 131.8,58 141.1,65 78.7,147.3 "/>
<linearGradient id="SVGID_15_" gradientUnits="userSpaceOnUse" x1="72.6641" y1="-79.7752" x2="135.3161" y2="-79.7752" gradientTransform="matrix(-0.1694 0.9855 0.9855 0.1694 223.6244 87.985)">
	<stop  offset="0" style="stop-color:#2581C4"/>
	<stop  offset="1" style="stop-color:#2581C4;stop-opacity:0"/>
</linearGradient>
<polygon class="st12" points="85.7,138 176.1,206.6 169.1,215.9 78.7,147.3 "/>
<linearGradient id="SVGID_16_" gradientUnits="userSpaceOnUse" x1="12.8142" y1="4.8679" x2="140.6988" y2="4.8679" gradientTransform="matrix(-0.1694 0.9855 0.9855 0.1694 223.6244 87.985)">
	<stop  offset="0" style="stop-color:#FFFFFF"/>
	<stop  offset="1" style="stop-color:#000000"/>
</linearGradient>
<polygon class="st13" points="169.1,215.9 252.5,105.9 261.8,113 178.4,223 "/>
<linearGradient id="SVGID_17_" gradientUnits="userSpaceOnUse" x1="-56.0948" y1="-37.6957" x2="23.2768" y2="-37.6957" gradientTransform="matrix(-0.1694 0.9855 0.9855 0.1694 223.6244 87.985)">
	<stop  offset="0" style="stop-color:#FFFFFF"/>
	<stop  offset="1" style="stop-color:#000000"/>
</linearGradient>
<polygon class="st14" points="245.4,115.3 126.1,24.8 133.1,15.5 252.4,106 "/>
<linearGradient id="SVGID_18_" gradientUnits="userSpaceOnUse" x1="-61.5781" y1="-145.6111" x2="94.1503" y2="-145.6111" gradientTransform="matrix(-0.1694 0.9855 0.9855 0.1694 223.6244 87.985)">
	<stop  offset="0" style="stop-color:#2581C4"/>
	<stop  offset="1" style="stop-color:#2581C4;stop-opacity:0"/>
</linearGradient>
<polygon class="st15" points="21.5,143.3 123.9,8.4 133.2,15.4 30.8,150.4 "/>
<linearGradient id="SVGID_19_" gradientUnits="userSpaceOnUse" x1="631.5873" y1="362.8091" x2="733.9631" y2="362.8091" gradientTransform="matrix(0.1694 -0.9855 -0.9855 -0.1694 339.3914 942.6523)">
	<stop  offset="0" style="stop-color:#FFFFFF"/>
	<stop  offset="1" style="stop-color:#000000"/>
</linearGradient>
<polygon class="st16" points="21.5,143.3 180.6,264 173.5,273.3 14.4,152.6 "/>
<linearGradient id="SVGID_20_" gradientUnits="userSpaceOnUse" x1="571.0411" y1="496.1528" x2="739.5449" y2="496.1528" gradientTransform="matrix(0.1694 -0.9855 -0.9855 -0.1694 611.5328 933.663)">
	<stop  offset="0" style="stop-color:#2581C4"/>
	<stop  offset="1" style="stop-color:#2581C4;stop-opacity:0"/>
</linearGradient>
<polygon class="st17" points="173.2,273.1 284,127 294,134.6 183.1,280.6 "/>
<linearGradient id="SVGID_21_" gradientUnits="userSpaceOnUse" x1="53.5016" y1="-69.7669" x2="90.9795" y2="-69.7669" gradientTransform="matrix(-0.1704 0.9848 0.9836 0.1679 224.2075 88.4448)">
	<stop  offset="0" style="stop-color:#2581C4"/>
	<stop  offset="1" style="stop-color:#2581C4;stop-opacity:0"/>
</linearGradient>
<polygon class="st18" points="123.4,125.5 170.2,161 163.1,170.3 116.4,134.8 "/>
<linearGradient id="SVGID_22_" gradientUnits="userSpaceOnUse" x1="24.3875" y1="-79.5336" x2="59.3185" y2="-79.5336" gradientTransform="matrix(-0.1694 0.9855 0.9855 0.1694 223.6244 87.985)">
	<stop  offset="0" style="stop-color:#FFFFFF"/>
	<stop  offset="1" style="stop-color:#000000"/>
</linearGradient>
<polygon class="st19" points="152.9,106 132.7,132.5 123.4,125.5 143.6,99 "/>
<linearGradient id="SVGID_23_" gradientUnits="userSpaceOnUse" x1="482.671" y1="-118.8556" x2="520.1437" y2="-118.8556" gradientTransform="matrix(-0.9639 -0.15 -0.1841 0.9801 646.7254 342.064)">
	<stop  offset="0" style="stop-color:#2581C4"/>
	<stop  offset="1" style="stop-color:#2581C4;stop-opacity:0"/>
</linearGradient>
<polygon class="st20" points="207.7,130.2 171.9,177.3 162.9,170.5 198.7,123.4 "/>
<path d="M281.5,125.4"/>
<text transform="matrix(0.6117 -0.7911 0.7911 0.6117 112.4515 82.809)" class="st21 st22">Git</text>
<text transform="matrix(0.7949 0.6067 -0.6067 0.7949 139.0177 62.6352)" class="st21 st22">Github</text>
</svg>
